# xmcd
# 
# Track frame offsets:
#     182
#     23357
#     33420
#     52097
#     66855
#     81222
#     91017
#     107955
#     120260
#     142422
#     162570
#     183995
# 
# Disc length: 2716
# 
# Revision: 2
# Processed by: cddbd v1.5.2PL0 Copyright (c) Steve Scherf et al.
# Submitted via: fre:ac v1.0.27
# 
DISCID=9e0a9a0c
DTITLE=Rural Blues - Rural Blues
DYEAR=1988
DGENRE=Jazz
TTITLE0=Robert Pete Williams - Santa Fe Blues
TTITLE1=Missisippi Johnny Waters - Baby, don't treat me
TTITLE2=J.C Burris - Black President
TTITLE3=Brownie Mc Ghee - Couldn't believe my eyes
TTITLE4=Sonny Terry - Mean Women
TTITLE5=Robert Jr.Lockwood - Mean Mistreater
TTITLE6=Johnny Shinnes - Lonesome Whistle
TTITLE7=Guitar Mac - Taxi Blues
TTITLE8=Dave van Ronk - St. James Infirmary
TTITLE9=Mickey Baker - Blues fell this Mornin
TTITLE10=Lightnin' Hopkins - Mojo Hand
TTITLE11=Big Bill Broonzy - Just a Dream
EXTD=
EXTT0=
EXTT1=
EXTT2=
EXTT3=
EXTT4=
EXTT5=
EXTT6=
EXTT7=
EXTT8=
EXTT9=
EXTT10=
EXTT11=
PLAYORDER=
